<svg width="24" height="52" viewBox="0 0 24 52" fill="none" xmlns="http://www.w3.org/2000/svg">
<path fill-rule="evenodd" clip-rule="evenodd" d="M18.1992 0.12793C15.8357 1.84894 9.22421 7.45857 5.30106 14.6556C2.60995 19.5924 1.15489 25.254 0.481399 30.27C-0.191247 35.2797 -0.0912032 39.6992 0.366105 42.1676L0.382197 42.1646C1.38194 47.6271 6.19728 51.769 11.9869 51.769C18.5012 51.769 23.7821 46.5253 23.7821 40.0568C23.7821 33.5884 18.5012 28.3447 11.9869 28.3447C7.20544 28.3447 3.0885 31.1697 1.23655 35.2305C1.30013 33.7414 1.43652 32.122 1.66417 30.4266C2.3253 25.5027 3.74921 19.9915 6.35044 15.2196C10.1557 8.23878 16.6123 2.75272 18.9048 1.08338L18.1992 0.12793Z" fill="#303036"/>
</svg>
