<svg width="259" height="19" viewBox="0 0 259 19" fill="none" xmlns="http://www.w3.org/2000/svg">
<path d="M17.7404 1.34425V1.62473H16.9457C16.4314 2.02987 15.8082 3.02713 15.0758 4.61652C14.9511 4.897 14.7096 5.44237 14.3512 6.25265C13.7435 7.70179 13.1358 9.16652 12.5281 10.6468C11.5932 12.8751 10.4713 15.5163 9.16234 18.5704H8.83512L2.17372 3.0505C2.03348 2.69211 1.91661 2.45059 1.82312 2.32593C1.72963 2.20127 1.53485 2.06103 1.23879 1.90521C0.942724 1.74939 0.529795 1.65589 0 1.62473V1.34425H5.98357V1.62473H5.11876C4.44872 1.62473 4.11371 1.88963 4.11371 2.41942C4.11371 2.55966 4.19162 2.81677 4.34744 3.19074L9.8168 16.1396C13.354 7.80308 15.1225 3.26865 15.1225 2.53629C15.1225 1.92858 14.8343 1.62473 14.2577 1.62473H13.1358V1.34425H17.7404ZM36.6381 9.75865C36.6381 10.491 36.5524 11.239 36.3809 12.0025C36.2095 12.766 35.9057 13.5529 35.4694 14.3632C35.0487 15.1579 34.5111 15.8669 33.8566 16.4902C33.2178 17.0979 32.3763 17.5965 31.3323 17.9861C30.3039 18.3756 29.143 18.5704 27.8497 18.5704C25.9642 18.5548 24.3826 18.1653 23.1049 17.4017C21.8427 16.6226 20.9 15.6098 20.2767 14.3632C19.4976 12.9296 19.1081 11.3948 19.1081 9.75865C19.1081 8.54323 19.3418 7.33561 19.8093 6.13578C20.2923 4.92037 21.0169 3.86857 21.983 2.98038C23.4477 1.64031 25.4033 0.970276 27.8497 0.970276C29.3767 0.970276 30.7324 1.22738 31.9166 1.7416C33.1009 2.25581 34.028 2.9648 34.6981 3.86857C35.9914 5.62936 36.6381 7.59272 36.6381 9.75865ZM34.4643 9.75865C34.4643 7.26549 33.8878 5.21643 32.7347 3.61146C31.566 2.03766 29.9377 1.25076 27.8497 1.25076C25.7772 1.25076 24.1645 2.01428 23.0114 3.54134C21.8583 5.0684 21.2818 7.14083 21.2818 9.75865C21.2818 12.9997 22.2635 15.4228 24.2268 17.0278C25.2241 17.8692 26.4317 18.2899 27.8497 18.2899C28.9249 18.2899 29.891 18.0562 30.748 17.5887C31.6206 17.1057 32.314 16.459 32.8282 15.6487C33.358 14.8384 33.7631 13.9347 34.0436 12.9374C34.3241 11.9246 34.4643 10.865 34.4643 9.75865ZM46.7158 17.9627C48.4143 17.9627 49.8167 17.8069 50.923 17.4952C52.0449 17.168 52.7929 16.5525 53.1668 15.6487L53.5408 14.2463H53.8447L53.0967 18.2432H39.7973V17.9627H40.6154C41.6282 17.9627 42.1346 17.542 42.1346 16.7005V2.88689C42.1346 2.38826 42.0255 2.05324 41.8074 1.88184C41.5892 1.71043 41.1919 1.62473 40.6154 1.62473H39.8207V1.34425H46.4821V1.62473H45.5939C45.0017 1.62473 44.6044 1.71043 44.4018 1.88184C44.2148 2.05324 44.1214 2.38826 44.1214 2.88689V16.7005C44.1214 17.1992 44.285 17.5264 44.6122 17.6822C44.9238 17.8692 45.625 17.9627 46.7158 17.9627ZM72.11 1.34425V1.62473H70.6842C70.1544 2.45059 69.8895 4.33603 69.8895 7.28107V18.5704H69.5857L58.1795 4.40616V12.5167C58.1795 15.3371 58.4444 17.1524 58.9742 17.9627H60.4V18.2432H55.6318V17.9627H57.0576C57.5406 17.1992 57.8055 15.3838 57.8523 12.5167V4.00881L56.8706 2.74665C56.3564 2.10778 55.9824 1.64031 55.7487 1.34425H58.2262L69.5623 15.5319V6.57987C69.5623 5.56703 69.4922 4.56977 69.3519 3.58809C69.2117 2.60641 69.0247 1.95196 68.791 1.62473H67.3418V1.34425H72.11ZM90.2514 17.9627V18.2432H84.0808V17.9627H84.8989C85.6624 17.9627 86.0442 17.7212 86.0442 17.2381C86.0442 17.02 85.4053 15.0722 84.1275 11.3948H78.144L77.3259 13.4984C76.6403 15.3215 76.2975 16.4356 76.2975 16.8408C76.2975 17.4173 76.5702 17.7913 77.1155 17.9627H78.1673V18.2432H73.6095V17.9627H74.3107C74.7782 17.6199 75.3002 16.9031 75.8768 15.8123C76.391 14.8462 77.1545 13.0543 78.1673 10.4365L80.2008 4.94374L81.5798 1.34425H82.1408L87.9374 16.4434C88.14 16.9888 88.3737 17.3784 88.6386 17.6121C88.9191 17.8458 89.3164 17.9627 89.8306 17.9627H90.2514ZM78.2375 11.1143H84.0107L81.1124 3.4011L78.2375 11.1143ZM113.053 18.0094C113.318 18.0094 113.528 17.8692 113.684 17.5887C113.856 17.3082 113.949 16.9732 113.965 16.5837H114.245C114.198 17.9081 113.528 18.5704 112.235 18.5704C111.347 18.5704 110.583 18.1964 109.944 17.4485C109.306 16.6849 108.612 15.4228 107.864 13.662C107.288 12.3375 106.509 11.3091 105.527 10.5767C104.561 9.82877 103.47 9.48596 102.255 9.54829V16.7005C102.255 17.542 102.745 17.9627 103.727 17.9627H104.592V18.2432H97.954V17.9627H98.7487C99.294 17.9627 99.6836 17.8614 99.9173 17.6588C100.151 17.4563 100.268 17.1368 100.268 16.7005V2.88689C100.268 2.37268 100.159 2.03766 99.9407 1.88184C99.7381 1.71043 99.3408 1.62473 98.7487 1.62473H97.954V1.34425H100.595C101.078 1.35983 101.935 1.32088 103.166 1.22738C104.304 1.13389 105.122 1.08714 105.62 1.08714C109.89 1.08714 112.025 2.50512 112.025 5.34109C112.025 6.74349 111.409 7.84203 110.178 8.63673C108.963 9.43142 107.42 9.84435 105.55 9.87551C107.732 10.5611 109.376 11.909 110.482 13.9191C110.716 14.2931 111.144 15.1813 111.768 16.5837C112.001 17.1135 112.235 17.4952 112.469 17.729C112.656 17.9159 112.851 18.0094 113.053 18.0094ZM109.851 5.45795C109.851 4.13347 109.454 3.12062 108.659 2.41942C107.88 1.71822 106.781 1.36762 105.363 1.36762C104.195 1.36762 103.158 1.57798 102.255 1.9987V9.26781L103.493 9.38467C104.335 9.47817 104.974 9.52491 105.41 9.52491C106.75 9.52491 107.825 9.14315 108.636 8.37962C109.446 7.63167 109.851 6.65778 109.851 5.45795ZM116.139 1.62473V1.34425H129.088L129.299 4.87362H129.018L128.761 2.93364C128.449 2.5285 127.748 2.20906 126.657 1.97533C125.551 1.7416 124.351 1.62473 123.058 1.62473C121.967 1.62473 121.266 1.70264 120.954 1.85846C120.627 2.02987 120.464 2.38047 120.464 2.91026V9.24443H121.796C122.668 9.24443 123.409 9.21327 124.016 9.15094C124.624 9.07303 125.076 8.99512 125.372 8.91721C125.668 8.82371 125.894 8.69906 126.05 8.54323C126.206 8.37183 126.291 8.23938 126.307 8.14589C126.338 8.05239 126.354 7.91994 126.354 7.74854V7.21095H126.634V11.5584H126.354V10.9741C126.354 10.8027 126.338 10.6702 126.307 10.5767C126.291 10.4832 126.206 10.3586 126.05 10.2027C125.894 10.0469 125.66 9.93005 125.349 9.85214C125.053 9.75865 124.601 9.68074 123.993 9.61841C123.401 9.55608 122.668 9.52491 121.796 9.52491H120.464V16.7005C120.464 17.1836 120.58 17.5186 120.814 17.7056C121.063 17.877 121.445 17.9627 121.959 17.9627C124.25 17.9627 126.034 17.8069 127.312 17.4952C128.481 17.168 129.229 16.5681 129.556 15.6955L129.813 14.6437H130.093L129.416 18.2432H116.139V17.9627H116.958C117.565 17.9627 117.97 17.877 118.173 17.7056C118.376 17.5342 118.477 17.1992 118.477 16.7005V2.88689C118.477 2.40384 118.352 2.07661 118.103 1.90521C117.869 1.71822 117.487 1.62473 116.958 1.62473H116.139ZM143.839 14.0126C143.839 15.3059 143.348 16.3811 142.366 17.2381C141.354 18.1263 139.99 18.5704 138.276 18.5704C136.422 18.5704 134.63 18.1419 132.9 17.2849C132.9 17.3628 132.9 17.5264 132.9 17.7757C132.916 18.025 132.924 18.1808 132.924 18.2432H132.643L132.292 13.7087H132.573L132.69 14.7138C133.142 15.6799 133.882 16.5135 134.91 17.2147C135.908 17.9315 137.022 18.2899 138.253 18.2899C139.515 18.2899 140.473 17.9938 141.128 17.4017C141.798 16.794 142.133 16.0071 142.133 15.041C142.133 13.327 140.66 11.722 137.715 10.2261C136.811 9.72748 136.196 9.36909 135.869 9.15094C135.37 8.85488 134.879 8.49649 134.396 8.07577C133.399 7.23433 132.9 6.19811 132.9 4.96711C132.9 3.73612 133.321 2.76223 134.162 2.04545C135.004 1.32867 136.289 0.970276 138.019 0.970276C139.624 0.970276 141.143 1.36762 142.577 2.16232V1.34425H142.857L143.091 5.43458H142.81L142.74 4.54639C142.475 3.65821 141.985 2.88689 141.268 2.23243C140.52 1.57798 139.46 1.25076 138.089 1.25076C135.752 1.25076 134.583 2.11557 134.583 3.84519C134.583 4.92037 135.027 5.83193 135.915 6.57987C136.679 7.24991 137.668 7.88099 138.884 8.47311C139.632 8.87825 140.239 9.22885 140.707 9.52491C141.206 9.85214 141.712 10.2261 142.226 10.6468C143.301 11.5662 143.839 12.6881 143.839 14.0126ZM153.488 17.9627V18.2432H146.827V17.9627H147.622C148.214 17.9627 148.619 17.877 148.837 17.7056C149.055 17.5186 149.164 17.1836 149.164 16.7005V2.88689C149.164 2.38826 149.055 2.05324 148.837 1.88184C148.635 1.71043 148.229 1.62473 147.622 1.62473H146.827V1.34425H153.488V1.62473H152.624C152.047 1.62473 151.658 1.71822 151.455 1.90521C151.252 2.07661 151.151 2.40384 151.151 2.88689V16.7005C151.151 17.1836 151.252 17.5186 151.455 17.7056C151.658 17.877 152.047 17.9627 152.624 17.9627H153.488ZM171.578 9.38467C171.578 6.95385 170.893 4.96711 169.521 3.42448C168.353 2.14673 166.717 1.50786 164.613 1.50786C163.055 1.50786 161.738 1.7338 160.663 2.18569V17.3082C161.598 17.8224 162.891 18.0796 164.543 18.0796C166.88 18.0796 168.641 17.2537 169.825 15.602C170.994 13.9658 171.578 11.8934 171.578 9.38467ZM158.676 16.7005V2.88689C158.676 2.41942 158.559 2.0922 158.326 1.90521C158.092 1.71822 157.695 1.62473 157.134 1.62473H156.339V1.34425H159.962C160.258 1.34425 160.982 1.32088 162.135 1.27413C163.663 1.24296 164.488 1.22738 164.613 1.22738C166.125 1.22738 167.48 1.43774 168.68 1.85846C169.88 2.2636 170.815 2.7856 171.485 3.42448C172.092 4.00102 172.583 4.69443 172.957 5.5047C173.487 6.68895 173.752 7.91215 173.752 9.17431C173.752 9.65736 173.721 10.1482 173.659 10.6468C173.612 11.1455 173.503 11.7064 173.331 12.3297C173.16 12.9374 172.934 13.5218 172.653 14.0827C172.389 14.6281 172.015 15.1735 171.532 15.7188C171.064 16.2486 170.519 16.7083 169.895 17.0979C169.288 17.4718 168.524 17.7757 167.605 18.0094C166.701 18.2432 165.704 18.36 164.613 18.36C164.161 18.36 163.74 18.3522 163.351 18.3367C163.195 18.3367 163.031 18.3289 162.86 18.3133C162.689 18.3133 162.556 18.3055 162.463 18.2899C162.385 18.2899 162.33 18.2899 162.299 18.2899C162.065 18.2899 161.793 18.2821 161.481 18.2665C161.169 18.2665 160.928 18.2587 160.756 18.2432C160.601 18.2432 160.476 18.2432 160.382 18.2432H156.339V17.9627H157.134C157.757 17.9627 158.17 17.877 158.372 17.7056C158.575 17.5342 158.676 17.1992 158.676 16.7005ZM176.83 1.62473V1.34425H189.779L189.989 4.87362H189.708L189.451 2.93364C189.14 2.5285 188.439 2.20906 187.348 1.97533C186.241 1.7416 185.042 1.62473 183.748 1.62473C182.658 1.62473 181.956 1.70264 181.645 1.85846C181.317 2.02987 181.154 2.38047 181.154 2.91026V9.24443H182.486C183.359 9.24443 184.099 9.21327 184.707 9.15094C185.314 9.07303 185.766 8.99512 186.062 8.91721C186.358 8.82371 186.584 8.69906 186.74 8.54323C186.896 8.37183 186.982 8.23938 186.997 8.14589C187.028 8.05239 187.044 7.91994 187.044 7.74854V7.21095H187.324V11.5584H187.044V10.9741C187.044 10.8027 187.028 10.6702 186.997 10.5767C186.982 10.4832 186.896 10.3586 186.74 10.2027C186.584 10.0469 186.351 9.93005 186.039 9.85214C185.743 9.75865 185.291 9.68074 184.683 9.61841C184.091 9.55608 183.359 9.52491 182.486 9.52491H181.154V16.7005C181.154 17.1836 181.271 17.5186 181.504 17.7056C181.754 17.877 182.136 17.9627 182.65 17.9627C184.94 17.9627 186.725 17.8069 188.002 17.4952C189.171 17.168 189.919 16.5681 190.246 15.6955L190.503 14.6437H190.784L190.106 18.2432H176.83V17.9627H177.648C178.256 17.9627 178.661 17.877 178.863 17.7056C179.066 17.5342 179.167 17.1992 179.167 16.7005V2.88689C179.167 2.40384 179.042 2.07661 178.793 1.90521C178.559 1.71822 178.178 1.62473 177.648 1.62473H176.83ZM209.508 1.34425V1.62473H208.082C207.552 2.45059 207.287 4.33603 207.287 7.28107V18.5704H206.983L195.577 4.40616V12.5167C195.577 15.3371 195.842 17.1524 196.372 17.9627H197.798V18.2432H193.03V17.9627H194.455C194.938 17.1992 195.203 15.3838 195.25 12.5167V4.00881L194.268 2.74665C193.754 2.10778 193.38 1.64031 193.146 1.34425H195.624L206.96 15.5319V6.57987C206.96 5.56703 206.89 4.56977 206.75 3.58809C206.609 2.60641 206.422 1.95196 206.189 1.62473H204.74V1.34425H209.508ZM227.479 14.1528L226.918 18.2432H226.637L226.684 17.355C225.313 18.1653 223.498 18.5704 221.238 18.5704C218.48 18.5704 216.361 17.7835 214.881 16.2097C213.4 14.6359 212.66 12.5479 212.66 9.94563C212.66 9.11978 212.746 8.3095 212.917 7.51481C213.089 6.70453 213.385 5.90205 213.805 5.10735C214.242 4.29708 214.779 3.59588 215.418 3.00376C216.073 2.39605 216.914 1.90521 217.943 1.53124C218.971 1.15726 220.124 0.970276 221.402 0.970276C222.976 0.970276 224.705 1.3832 226.591 2.20906L226.567 1.34425H226.848L227.152 5.59819H226.871L226.731 4.52302C225.593 2.34151 223.7 1.25076 221.051 1.25076C219.664 1.25076 218.488 1.66368 217.522 2.48954C216.571 3.29982 215.886 4.32824 215.465 5.57482C215.044 6.8214 214.834 8.23159 214.834 9.80539C214.834 12.5946 215.449 14.6982 216.68 16.1162C217.911 17.5653 219.431 18.2899 221.238 18.2899C222.485 18.2899 223.638 18.025 224.697 17.4952C225.757 16.9498 226.482 16.3032 226.871 15.5552L227.175 14.1528H227.479ZM230.428 1.62473V1.34425H243.377L243.587 4.87362H243.306L243.049 2.93364C242.738 2.5285 242.037 2.20906 240.946 1.97533C239.839 1.7416 238.64 1.62473 237.346 1.62473C236.256 1.62473 235.554 1.70264 235.243 1.85846C234.915 2.02987 234.752 2.38047 234.752 2.91026V9.24443H236.084C236.957 9.24443 237.697 9.21327 238.305 9.15094C238.912 9.07303 239.364 8.99512 239.66 8.91721C239.956 8.82371 240.182 8.69906 240.338 8.54323C240.494 8.37183 240.58 8.23938 240.595 8.14589C240.626 8.05239 240.642 7.91994 240.642 7.74854V7.21095H240.922V11.5584H240.642V10.9741C240.642 10.8027 240.626 10.6702 240.595 10.5767C240.58 10.4832 240.494 10.3586 240.338 10.2027C240.182 10.0469 239.948 9.93005 239.637 9.85214C239.341 9.75865 238.889 9.68074 238.281 9.61841C237.689 9.55608 236.957 9.52491 236.084 9.52491H234.752V16.7005C234.752 17.1836 234.869 17.5186 235.102 17.7056C235.352 17.877 235.734 17.9627 236.248 17.9627C238.538 17.9627 240.322 17.8069 241.6 17.4952C242.769 17.168 243.517 16.5681 243.844 15.6955L244.101 14.6437H244.382L243.704 18.2432H230.428V17.9627H231.246C231.854 17.9627 232.259 17.877 232.461 17.7056C232.664 17.5342 232.765 17.1992 232.765 16.7005V2.88689C232.765 2.40384 232.64 2.07661 232.391 1.90521C232.157 1.71822 231.776 1.62473 231.246 1.62473H230.428ZM258.127 14.0126C258.127 15.3059 257.636 16.3811 256.655 17.2381C255.642 18.1263 254.278 18.5704 252.564 18.5704C250.71 18.5704 248.918 18.1419 247.188 17.2849C247.188 17.3628 247.188 17.5264 247.188 17.7757C247.204 18.025 247.212 18.1808 247.212 18.2432H246.931L246.581 13.7087H246.861L246.978 14.7138C247.43 15.6799 248.17 16.5135 249.199 17.2147C250.196 17.9315 251.31 18.2899 252.541 18.2899C253.803 18.2899 254.761 17.9938 255.416 17.4017C256.086 16.794 256.421 16.0071 256.421 15.041C256.421 13.327 254.948 11.722 252.003 10.2261C251.1 9.72748 250.484 9.36909 250.157 9.15094C249.658 8.85488 249.167 8.49649 248.684 8.07577C247.687 7.23433 247.188 6.19811 247.188 4.96711C247.188 3.73612 247.609 2.76223 248.451 2.04545C249.292 1.32867 250.578 0.970276 252.307 0.970276C253.912 0.970276 255.431 1.36762 256.865 2.16232V1.34425H257.145L257.379 5.43458H257.099L257.029 4.54639C256.764 3.65821 256.273 2.88689 255.556 2.23243C254.808 1.57798 253.749 1.25076 252.377 1.25076C250.04 1.25076 248.871 2.11557 248.871 3.84519C248.871 4.92037 249.315 5.83193 250.204 6.57987C250.967 7.24991 251.957 7.88099 253.172 8.47311C253.92 8.87825 254.528 9.22885 254.995 9.52491C255.494 9.85214 256 10.2261 256.514 10.6468C257.59 11.5662 258.127 12.6881 258.127 14.0126Z" fill="#F2EDE7"/>
</svg>
